<?xml version="1.0" encoding="UTF-8"?>
<svg id="Layer_1" data-name="Layer 1" xmlns="http://www.w3.org/2000/svg" viewBox="0 0 3820.115 1320.863">
  <defs>
    <style>
      .cls-1 {
        fill: #fff;
      }
    </style>
  </defs>
  <polygon class="cls-1" points="1282.033 146.842 1282.033 47.156 986.711 47.156 986.642 69.594 986.4 305.142 986.4 1270.947 986.262 1270.947 986.262 1279.728 1282.794 1279.728 1282.223 146.842 1282.033 146.842"/>
  <polygon class="cls-1" points="625.423 1297.358 769.601 821.266 763.707 805.951 763.638 806.089 470.477 47.155 179.667 47.155 179.927 55.953 179.927 139.304 625.423 1297.358"/>
  <rect class="cls-1" x="42.253" y="1224.463" width="296.895" height="54.249"/>
  <path class="cls-1" d="M3775.908,664.535c0-391.792-342.373-617.694-665.333-617.694h-398.896v3.526h.052v1228.337h-.052v3.526h398.896c322.96,0,665.333-225.903,665.333-617.694ZM3110.575,1278.704h-102.313V50.367h102.313c319.451,0,372.397,231.209,372.397,614.168s-52.946,614.168-372.397,614.168Z"/>
  <path class="cls-1" d="M2605.351,664.474c0-361.679-317.585-643.985-606.926-643.985s-606.994,282.306-606.994,643.985,317.585,643.986,606.994,643.986,606.926-282.306,606.926-643.986ZM1998.425,1304.934c-201.203,0-291.138-139.354-291.138-640.46S1797.223,24.016,1998.425,24.016s291.069,139.354,291.069,640.458-89.936,640.46-291.069,640.46Z"/>
</svg>